<svg width="157" height="80" viewBox="0 0 157 80" fill="none" xmlns="http://www.w3.org/2000/svg">
<g clip-path="url(#clip0_8279_379)">
<path fill-rule="evenodd" clip-rule="evenodd" d="M102.659 42.7436L100.365 37.3695L98.1511 42.7436H102.659ZM97.9708 43.2009L97.1638 45.4736C96.988 45.9988 96.9024 46.4154 96.9024 46.7187C96.9024 47.0537 97.0015 47.2846 97.1999 47.4159C97.3983 47.5472 97.6552 47.6378 97.9663 47.6876C98.2773 47.7374 98.5839 47.7691 98.8769 47.7872C99.17 47.8008 99.4585 47.8143 99.738 47.8324V48.1811H92.3672V47.8324L93.9135 47.7464C94.4905 47.6876 94.9233 47.5699 95.2253 47.3842C95.5184 47.2031 95.7483 46.9722 95.8925 46.6961C96.0413 46.4199 96.2036 46.0894 96.3884 45.7136C96.5733 45.3333 96.7265 44.9937 96.8483 44.6859L101.825 32.1856H104.692L110.188 44.6859L110.995 46.3882C111.238 46.8409 111.486 47.1624 111.739 47.3616C111.991 47.5563 112.343 47.6876 112.794 47.7419L113.862 47.8279V48.1765H101.487V47.8279C101.694 47.8279 101.884 47.8279 102.046 47.8189C102.213 47.8098 102.51 47.7781 102.943 47.7193C103.376 47.6604 103.692 47.5834 103.881 47.4884C104.07 47.3933 104.169 47.1941 104.169 46.8862C104.169 46.5783 104.048 46.1075 103.804 45.5099L102.867 43.1918H97.9708V43.2009ZM130.767 43.5087C130.767 44.953 130.042 46.1346 128.59 47.0582C127.138 47.9818 125.561 48.4482 123.852 48.4482C122.36 48.4482 120.877 48.0498 119.42 47.2575C117.955 46.4652 117.117 46.0667 116.891 46.0667C116.314 46.0667 115.958 46.2478 115.818 46.6146C115.679 46.9768 115.548 47.5925 115.426 48.4482H114.984V40.6247H115.426C115.53 40.9326 115.71 41.4352 115.958 42.1324C116.211 42.8296 116.68 43.6672 117.365 44.6361C118.05 45.6049 118.952 46.4108 120.074 47.0492C121.197 47.6876 122.49 48.009 123.969 48.009C124.821 48.009 125.515 47.8189 126.052 47.4431C126.588 47.0628 126.859 46.6146 126.859 46.0894C126.859 45.4646 126.661 44.9666 126.259 44.6044C125.858 44.2422 125.141 43.889 124.095 43.5449C123.054 43.2009 121.95 42.8341 120.786 42.4402C119.623 42.0464 118.388 41.5167 117.085 40.8466C115.782 40.1901 115.133 38.9541 115.133 37.1296C115.133 35.7034 115.818 34.4946 117.193 33.5031C118.564 32.5116 120.146 32.0181 121.936 32.0181C122.928 32.0181 123.888 32.2127 124.826 32.6066L127.535 33.8743C128.04 33.8743 128.369 33.6977 128.527 33.3401C128.685 32.9824 128.761 32.5433 128.761 32.0181H129.257V37.8087H128.788C128.703 37.5597 128.522 37.1386 128.256 36.541C127.986 35.9434 127.472 35.2733 126.697 34.5308C125.93 33.7883 125.164 33.2541 124.411 32.9236C123.654 32.5976 122.752 32.4301 121.693 32.4301C120.985 32.4301 120.327 32.6066 119.718 32.9552C119.114 33.3039 118.812 33.743 118.812 34.2682C118.812 34.8206 119.042 35.2824 119.502 35.6536C119.961 36.0249 120.493 36.3191 121.088 36.5365C121.688 36.7538 122.518 37.03 123.577 37.365C124.636 37.7 125.736 38.0894 126.872 38.5331C128.008 38.9768 128.942 39.6242 129.672 40.4799C130.402 41.331 130.767 42.3406 130.767 43.5042V43.5087ZM147.754 40.2761H141.943V45.4555L141.997 46.4606C141.997 46.9405 142.096 47.2665 142.295 47.434C142.493 47.6015 142.872 47.7147 143.426 47.7736L144.364 47.837V48.1856H132.746V47.837L134.049 47.7509C134.554 47.6921 134.906 47.5698 135.104 47.3797C135.303 47.1895 135.429 46.8681 135.483 46.4199L135.537 45.4148V35.0333L135.483 34.0283C135.429 33.5619 135.312 33.236 135.131 33.0549C134.951 32.8738 134.59 32.7515 134.049 32.6927L132.692 32.6066V32.258H144.364V32.6066L143.426 32.67C142.872 32.7153 142.493 32.8285 142.295 33.0096C142.096 33.1907 141.997 33.5166 141.997 33.983L141.943 34.9881V39.7962H147.754V34.9881L147.7 33.983C147.646 33.5031 147.529 33.1771 147.348 33.0096C147.168 32.8421 146.807 32.7289 146.266 32.67L145.329 32.6066V32.258H157V32.6066L155.648 32.6927C155.143 32.7515 154.791 32.8738 154.593 33.0639C154.394 33.2541 154.268 33.5755 154.214 34.0237L154.16 35.0288V45.4103L154.214 46.4153C154.268 46.8817 154.385 47.2077 154.566 47.3888C154.746 47.5698 155.107 47.6921 155.648 47.7509L156.951 47.837V48.1856H145.333V47.837L146.271 47.7736C146.825 47.7147 147.191 47.6061 147.366 47.4476C147.542 47.2891 147.655 46.9586 147.704 46.4652L147.759 45.4601V40.2807L147.754 40.2761Z" fill="black"/>
<path fill-rule="evenodd" clip-rule="evenodd" d="M78.4062 5.10242C78.0321 5.49178 77.6128 5.69099 77.1214 5.94453C73.7358 7.69212 69.9625 9.46688 66.1441 10.3633C63.6016 10.9609 60.9959 11.382 58.1648 11.3684C56.4472 11.3594 51.4431 10.9292 50.2891 10.3905C50.555 11.7125 54.8378 15.0719 56.4427 16.1358C60.8786 19.0877 65.6167 19.9796 71.3014 19.6763C76.0169 19.4227 83.4193 17.811 85.8537 23.2213L86.5524 24.4935C87.2737 22.841 87.6299 21.0028 88.2971 19.3956C90.3798 14.3565 94.7257 10.2954 95.5777 6.04413C96.033 3.77588 95.3252 2.28635 93.8105 1.24957C93.1118 0.769656 92.1605 0.362186 91.3085 0.126759C88.8696 -0.543304 84.632 1.5529 82.9099 2.53536C82.1164 2.98811 79.087 5.0164 78.4107 5.0979L78.4062 5.10242Z" fill="#F9BD05"/>
<path fill-rule="evenodd" clip-rule="evenodd" d="M35.8352 12.9169C36.3311 18.0737 36.552 17.2814 37.9585 21.845C40.3162 29.4829 41.0691 37.1297 37.3138 44.4008C37.0208 44.9667 35.2401 47.8371 35.2266 47.9503C37.138 47.4704 39.3244 46.6057 40.8933 45.759C45.6629 43.201 48.4128 40.7879 50.5542 35.8892C50.8743 35.1603 51.2304 33.6843 51.5325 33.2044C51.9111 30.7913 53.0878 26.8886 54.2599 25.1093C55.9144 22.6057 58.1774 21.913 62.3339 21.7681C62.0725 21.6006 59.9672 20.9169 58.4028 19.9797C55.3283 18.1461 54.9226 17.4263 52.7001 15.6243C52.4296 15.4025 52.2538 15.2033 52.0238 14.9497C51.1267 13.9673 50.1935 13.1252 49.2108 12.1065C46.5825 9.39004 41.556 5.6232 37.6249 9.27685C35.8802 10.8977 36.2409 12.5774 35.8397 12.9124L35.8352 12.9169Z" fill="black"/>
<path fill-rule="evenodd" clip-rule="evenodd" d="M70.7239 72.2716C71.1476 69.451 69.696 64.3893 68.4247 62.1437C67.6358 60.7447 66.7116 59.2597 65.6928 58.3361L64.0203 56.7696C59.2597 52.7719 52.1369 51.3005 50.532 46.8409C49.7566 44.6904 50.5996 43.3865 50.9107 41.3989L49.4681 42.7798C49.0488 43.1646 48.5394 43.5993 47.8947 44.0565C40.3797 49.3853 31.4942 49.5121 29.3934 54.7821C28.352 57.3944 30.8224 60.1154 34.163 61.0526C37.6252 62.026 41.3399 61.6864 45.3206 61.9898C49.3328 62.2931 52.3938 62.6915 55.9507 63.5834C56.8433 63.8098 57.4339 64.0633 58.1958 64.2716C59.8503 64.7243 63.033 66.2003 64.2457 67.0605C65.4178 67.8935 66.7026 68.5908 67.6944 69.4736L70.7194 72.2716H70.7239Z" fill="#F9BD05"/>
<path fill-rule="evenodd" clip-rule="evenodd" d="M68.4772 57.0007C69.0317 57.4398 70.1903 59.6628 70.5644 60.5095C71.6058 62.8728 72.4714 67.2418 72.521 69.7409C72.548 70.9407 73.0394 73.3584 73.3099 74.5491C73.7742 76.5819 74.8246 78.7098 76.9299 79.4659C77.7774 79.7692 78.3364 80.1042 79.5131 79.9775C84.8236 79.407 86.2888 74.0103 87.7404 70.7505C89.1424 67.604 89.7645 66.2005 91.4957 63.1625C92.262 61.8224 93.06 60.8037 93.885 59.6945C94.7325 58.5491 95.6251 57.5259 96.5853 56.6204C97.1263 56.1088 97.5636 55.6877 98.1406 55.2033C98.7312 54.7007 99.2406 54.3883 99.8537 53.9265C101.562 52.6317 103.595 51.6311 105.642 50.7709C106.323 50.4857 107.148 50.2457 107.788 49.9107C105.381 48.8875 101.175 48.5162 98.4337 48.5117C92.4559 48.5117 87.4564 51.3459 83.3044 54.5966C81.4741 56.0273 79.5491 57.7205 76.7721 58.626C73.2107 59.7851 70.862 58.2231 68.4727 57.0097L68.4772 57.0007Z" fill="black"/>
<path fill-rule="evenodd" clip-rule="evenodd" d="M16.1791 20.6178H17.9643C20.1372 24.5522 23.2117 30.7502 27.1879 39.203C29.0227 43.0875 30.2805 45.4418 30.9747 46.2658C31.66 47.0898 32.7599 47.5923 34.2566 47.7734C34.757 47.8278 35.0005 48.0043 35.0005 48.3167C35.0005 48.7468 34.6804 48.9596 34.0357 48.9596C33.6886 48.9596 32.7915 48.9098 31.3399 48.8102C29.6223 48.6835 28.1797 48.6201 27.0121 48.6201C25.8445 48.6201 24.3839 48.6744 22.5581 48.7876C21.1876 48.8736 20.286 48.9144 19.8622 48.9144C19.1003 48.9144 18.7216 48.7152 18.7216 48.3213C18.7216 48.027 18.9831 47.8549 19.5151 47.8142C21.5437 47.6603 22.5581 46.9902 22.5581 45.7995C22.5581 45.2426 22.2515 44.2284 21.6519 42.748C21.0523 41.2766 20.4077 39.9274 19.7224 38.7231C18.6585 38.7095 17.82 38.7004 17.2295 38.7004C13.916 38.7004 11.3373 38.7095 9.49351 38.7231C8.06444 41.9738 7.34764 44.1243 7.34764 45.1747C7.34764 45.9308 7.70378 46.5058 8.41156 46.9223C9.12384 47.3388 9.89023 47.5788 10.7197 47.6467C11.3554 47.701 11.6664 47.9138 11.6664 48.2805C11.6664 48.6472 11.3283 48.8283 10.6521 48.8283C10.3816 48.8283 9.68736 48.8012 8.56484 48.7423C7.10871 48.6563 6.04479 48.6155 5.38661 48.6155C4.08376 48.6155 2.84403 48.6789 1.6674 48.8148C1.36987 48.851 1.11741 48.8691 0.923564 48.8691C0.305951 48.8691 0.00390625 48.6563 0.00390625 48.2398C0.00390625 47.9364 0.206772 47.7372 0.603487 47.6421C1.59077 47.4112 2.37067 47.126 2.9387 46.7819C3.4977 46.4424 4.1063 45.7859 4.75547 44.8215C5.41366 43.8481 6.19356 42.2907 7.09519 40.1492C9.13286 35.3275 12.1578 28.817 16.1836 20.6133L16.1791 20.6178ZM14.4795 27.8119L10.2599 37.0343L18.9335 36.9302C18.4692 35.8572 17.7569 34.3903 16.8012 32.525C15.7598 30.4786 14.9934 28.9076 14.475 27.8165L14.4795 27.8119Z" fill="black"/>
<path fill-rule="evenodd" clip-rule="evenodd" d="M75.9892 47.9368C77.5445 47.9368 79.0908 47.2984 80.6326 46.0262C82.1743 44.754 83.5313 43.2825 84.7124 41.621C85.8935 39.9594 86.9575 38.1982 87.9177 36.3465H88.5398V48.7336H58.1641V48.1767C58.3714 48.1767 58.6645 48.1722 59.0386 48.1586C59.4128 48.145 59.9853 48.0998 60.7472 48.0183C61.5091 47.9368 62.0636 47.7466 62.3972 47.4478C62.7353 47.149 62.9427 46.6374 63.0193 45.9221L63.096 44.3239V27.8394L63.0193 26.2412C62.9427 25.4987 62.7669 24.9871 62.4964 24.6974C62.2259 24.4076 61.8021 24.231 61.2341 24.1586C60.6661 24.0907 60.1702 24.0499 59.7599 24.0364C59.3452 24.0228 58.971 24.0092 58.6329 23.9866V23.4297H77.4363V23.9866L74.8712 24.0907C74.0958 24.1586 73.5638 24.3352 73.2798 24.6114C72.9958 24.8875 72.8155 25.4082 72.7343 26.1733L72.6577 27.7715V48.0364L75.9982 47.9322L75.9892 47.9368Z" fill="black"/>
</g>
<defs>
<clipPath id="clip0_8279_379">
<rect width="157" height="80" fill="white"/>
</clipPath>
</defs>
</svg>
