<svg width="15" height="15" viewBox="0 0 15 15" fill="none" xmlns="http://www.w3.org/2000/svg">
<path d="M8.11325 0.626978C8.11325 0.460958 8.1792 0.301738 8.2966 0.184344C8.41399 0.0669508 8.57321 0.000999667 8.73923 0.000999667C10.3989 0.00282226 11.99 0.662918 13.1636 1.83646C14.3371 3.01 14.9972 4.60114 14.999 6.26078C14.999 6.4268 14.9331 6.58602 14.8157 6.70341C14.6983 6.82081 14.5391 6.88676 14.373 6.88676C14.207 6.88676 14.0478 6.82081 13.9304 6.70341C13.813 6.58602 13.7471 6.4268 13.7471 6.26078C13.7456 4.93308 13.2175 3.66019 12.2787 2.72136C11.3398 1.78253 10.0669 1.25445 8.73923 1.25296C8.57321 1.25296 8.41399 1.187 8.2966 1.06961C8.1792 0.952218 8.11325 0.792997 8.11325 0.626978ZM8.73923 3.75687C9.40331 3.75687 10.0402 4.02067 10.5098 4.49025C10.9793 4.95982 11.2431 5.5967 11.2431 6.26078C11.2431 6.4268 11.3091 6.58602 11.4265 6.70341C11.5439 6.82081 11.7031 6.88676 11.8691 6.88676C12.0351 6.88676 12.1944 6.82081 12.3118 6.70341C12.4291 6.58602 12.4951 6.4268 12.4951 6.26078C12.4941 5.26497 12.0981 4.31023 11.3939 3.60608C10.6898 2.90193 9.73505 2.50591 8.73923 2.50491C8.57321 2.50491 8.41399 2.57086 8.2966 2.68826C8.1792 2.80565 8.11325 2.96487 8.11325 3.13089C8.11325 3.29691 8.1792 3.45613 8.2966 3.57352C8.41399 3.69092 8.57321 3.75687 8.73923 3.75687ZM14.4313 10.4792C14.794 10.843 14.9977 11.3358 14.9977 11.8495C14.9977 12.3632 14.794 12.856 14.4313 13.2198L13.8616 13.8764C8.73485 18.7847 -3.74089 6.31211 1.09166 1.16907L1.81153 0.543097C2.17571 0.190469 2.66407 -0.00460341 3.17097 8.25099e-05C3.67787 0.00476843 4.16255 0.208836 4.52014 0.568136C4.53955 0.587541 5.69948 2.09427 5.69948 2.09427C6.04366 2.45585 6.23526 2.93617 6.23444 3.43537C6.23363 3.93457 6.04046 4.41425 5.6951 4.77471L4.97022 5.68613C5.37137 6.66085 5.96118 7.54669 6.70575 8.29276C7.45031 9.03884 8.33497 9.63043 9.30887 10.0336L10.2259 9.30429C10.5864 8.95919 11.066 8.76625 11.5651 8.76555C12.0641 8.76486 12.5443 8.95645 12.9057 9.30053C12.9057 9.30053 14.4118 10.4598 14.4313 10.4792ZM13.5699 11.3894C13.5699 11.3894 12.0719 10.237 12.0525 10.2176C11.9236 10.0897 11.7493 10.018 11.5677 10.018C11.3861 10.018 11.2119 10.0897 11.0829 10.2176C11.066 10.2351 9.8034 11.2411 9.8034 11.2411C9.71831 11.3088 9.61705 11.3532 9.50959 11.3699C9.40213 11.3865 9.29218 11.3749 9.19056 11.3362C7.92888 10.8665 6.78289 10.131 5.83021 9.17977C4.87753 8.22849 4.14042 7.08359 3.66881 5.8226C3.62699 5.71959 3.61336 5.60732 3.62931 5.4973C3.64526 5.38728 3.69023 5.2835 3.75958 5.19662C3.75958 5.19662 4.76552 3.93339 4.78242 3.91712C4.91029 3.78816 4.98204 3.6139 4.98204 3.4323C4.98204 3.25069 4.91029 3.07644 4.78242 2.94748C4.76302 2.9287 3.61059 1.42948 3.61059 1.42948C3.4797 1.31212 3.30887 1.24926 3.13313 1.2538C2.95738 1.25834 2.79003 1.32993 2.66537 1.45389L1.94549 2.07987C-1.58628 6.32651 9.22499 16.5381 12.9464 13.0213L13.5167 12.3641C13.6503 12.2403 13.7306 12.0694 13.7405 11.8875C13.7505 11.7056 13.6893 11.527 13.5699 11.3894Z" fill="#F9BD05"/>
</svg>
