<svg width="20" height="15" viewBox="0 0 20 15" fill="none" xmlns="http://www.w3.org/2000/svg">
<path d="M12.483 7.66846L13.6189 6.53252C13.7016 6.84174 13.75 7.16502 13.75 7.50002C13.75 9.56783 12.0678 11.25 10 11.25C9.665 11.25 9.34172 11.2016 9.0325 11.1189L10.1684 9.98298C11.4105 9.89829 12.3983 8.91049 12.483 7.66846ZM19.9212 7.19643C19.8444 7.05815 18.7541 5.14768 16.6228 3.52862L15.7133 4.43815C17.2673 5.58081 18.252 6.91346 18.6397 7.50096C17.8989 8.62892 14.993 12.5 10 12.5C9.25125 12.5 8.555 12.4042 7.89984 12.2514L6.87281 13.2784C7.81703 13.568 8.85484 13.75 10 13.75C16.5427 13.75 19.7864 8.04627 19.9212 7.80361C20.0263 7.61471 20.0263 7.38533 19.9212 7.19643ZM17.3169 1.06691L3.56687 14.8169C3.44484 14.9389 3.28484 15 3.125 15C2.96516 15 2.80516 14.9389 2.68313 14.8169C2.43891 14.5727 2.43891 14.1772 2.68313 13.9331L4.4325 12.1838C1.60437 10.4764 0.167344 7.96314 0.07875 7.80361C-0.02625 7.61471 -0.02625 7.38518 0.07875 7.19627C0.213594 6.95377 3.45734 1.25004 10 1.25004C11.6917 1.25004 13.157 1.63597 14.4097 2.2066L16.4331 0.183164C16.6773 -0.0610545 17.0728 -0.0610545 17.3169 0.183164C17.5609 0.427382 17.5611 0.822849 17.3169 1.06691ZM5.36453 11.2517L6.94687 9.66939C6.50984 9.05627 6.25 8.30861 6.25 7.50002C6.25 5.43221 7.93219 3.75003 10 3.75003C10.8086 3.75003 11.5563 4.00987 12.1694 4.44675L13.4489 3.16722C12.438 2.76238 11.2892 2.50003 10 2.50003C5.00703 2.50003 2.10109 6.37112 1.36047 7.49908C1.83078 8.21189 3.18266 10.0163 5.36453 11.2517ZM7.85422 8.76189L11.2619 5.35424C10.8902 5.13471 10.4622 5.00003 10 5.00003C8.62156 5.00003 7.5 6.12159 7.5 7.50002C7.5 7.96221 7.63469 8.39017 7.85422 8.76189Z" fill="#F9BD05"/>
</svg>
