<svg width="15" height="18" viewBox="0 0 15 18" fill="none" xmlns="http://www.w3.org/2000/svg">
<path d="M6.76146 12.6995C6.76146 13.073 7.06425 13.3758 7.43776 13.3758C7.81128 13.3758 8.11407 13.073 8.11407 12.6995H6.76146ZM4.05622 6.90171H10.8193V5.54909H4.05622V6.90171ZM13.5245 9.92487V13.6243H14.8772V9.92487H13.5245ZM10.8193 16.6475H4.05622V18.0001H10.8193V16.6475ZM1.35099 13.6243V9.92487H-0.00162572V13.6243H1.35099ZM4.05622 16.6475C2.61808 16.6475 1.35099 15.3525 1.35099 13.6243H-0.00162572C-0.00162572 15.9825 1.75922 18.0001 4.05622 18.0001V16.6475ZM13.5245 13.6243C13.5245 15.3525 12.2574 16.6475 10.8193 16.6475V18.0001C13.1163 18.0001 14.8772 15.9825 14.8772 13.6243H13.5245ZM10.8193 6.90171C12.2574 6.90171 13.5245 8.19674 13.5245 9.92487H14.8772C14.8772 7.56668 13.1163 5.54909 10.8193 5.54909V6.90171ZM4.05622 5.54909C1.75922 5.54909 -0.00162572 7.56668 -0.00162572 9.92487H1.35099C1.35099 8.19674 2.61808 6.90171 4.05622 6.90171V5.54909ZM6.76146 10.8497V12.6995H8.11407V10.8497H6.76146ZM10.143 4.37567V6.2254H11.4956V4.37567H10.143ZM4.73253 6.2254V4.37567H3.37992V6.2254H4.73253ZM7.43776 1.35251C8.87591 1.35251 10.143 2.64755 10.143 4.37567H11.4956C11.4956 2.01748 9.73477 -0.000101584 7.43776 -0.000101584V1.35251ZM7.43776 -0.000101584C5.14076 -0.000101584 3.37992 2.01748 3.37992 4.37567H4.73253C4.73253 2.64755 5.99962 1.35251 7.43776 1.35251V-0.000101584Z" fill="#F9BD05"/>
</svg>
